<svg width="153" height="32" viewBox="0 0 153 32" fill="none" xmlns="http://www.w3.org/2000/svg">
<path d="M4.57812 1.78906H0L8.10938 24.7891H13.2344L21.3438 1.78906H16.7656L10.7188 19.8984H10.625L4.57812 1.78906Z" fill="black"/>
<path d="M28.75 25.0391C32.7031 25.0391 35.5625 22.9141 36.1562 19.6484H32.4062C31.9688 21.0547 30.5 21.9297 28.7969 21.9453C26.2656 21.9297 24.7656 19.9922 24.7812 17.5859V17.5234H36.3281V16.5391C36.3281 11.4453 33.4062 8.03906 28.6719 8.03906C23.875 8.03906 20.7812 11.5234 20.7812 16.5547C20.7812 21.6797 23.875 25.0391 28.75 25.0391ZM24.7969 14.8828C24.9219 12.8828 26.4062 11.1328 28.6719 11.1328C30.8125 11.1328 32.4531 12.6641 32.5312 14.8828H24.7969Z" fill="black"/>
<path d="M38.5781 24.7891H42.6406V15.3828C42.6406 12.9141 44.125 11.6641 45.9531 11.6641C46.6719 11.6641 47.4844 11.7734 47.8438 11.8984V8.17969C47.5312 8.10156 47.0625 8.03906 46.5469 8.03906C44.5781 8.03906 43.2188 9.14844 42.6094 11.1484H42.4844V8.28906H38.5781V24.7891Z" fill="black"/>
<path d="M51.0156 31.5391H53.3906C56.0781 31.5391 57.5781 30.5859 58.2969 28.6484L65.8594 8.28906H61.5781L57.5469 20.4141H57.4844L53.4219 8.28906H49.0938L55.2656 24.7891C55.2656 24.7891 54.6562 26.7578 54.6562 26.8047C54.4219 27.4453 54.125 28.1328 52.9531 28.1328H51.0156V31.5391Z" fill="black"/>
<path d="M67.6562 24.7891H77.2031C82.4531 24.7891 85.0469 22.1016 85.0469 18.5078C85.0469 15.0391 82.6406 12.9141 80.2656 12.7891V12.7578C82.4688 12.2422 84.0312 10.5859 84.0312 7.85156C84.0312 4.42969 81.5625 1.78906 76.5781 1.78906H67.6562V24.7891ZM71.9219 21.2109V14.6016H76.7031C79.2812 14.6016 80.8125 16.1328 80.8125 18.1328C80.8125 19.9297 79.5625 21.2109 76.5938 21.2109H71.9219ZM71.9219 11.4453V5.27344H76.3125C78.7812 5.27344 79.9844 6.53906 79.9844 8.22656C79.9844 10.1953 78.3906 11.4453 76.2344 11.4453H71.9219Z" fill="black"/>
<path d="M92.5312 25.0391C95.1719 25.0391 96.6719 23.9609 97.4688 22.4609H97.5312V24.7891H101.453V13.4766C101.453 10.2891 98.7812 8.03906 94.5 8.03906C90.0938 8.03906 87.4844 10.4297 87.3125 13.4766H91.2656C91.4062 12.1016 92.6406 11.1484 94.4688 11.1484C96.2969 11.1484 97.3906 12.0703 97.3906 13.4609V13.5391C97.3906 14.6641 96.3438 14.7266 93.2969 15.0547C89.8906 15.4141 86.8281 16.3672 86.8281 20.1172C86.8281 23.3984 89.2344 25.0391 92.5312 25.0391ZM93.5625 22.0547C91.875 22.0547 90.8125 21.3203 90.7969 20.0547C90.7812 18.6016 92.2031 17.9766 93.8594 17.7422C95.4531 17.5234 96.9219 17.2578 97.4219 16.9453V18.6953C97.4219 20.5859 96.0469 22.0547 93.5625 22.0547Z" fill="black"/>
<path d="M117.609 13.4766C117.516 10.0859 114.797 8.05469 110.766 8.05469C106.75 8.05469 104.078 9.99219 104.078 13.0703C104.078 15.5391 105.672 17.1641 108.922 17.8359L111.688 18.4141C113 18.6953 113.891 19.1641 113.891 20.1641C113.891 21.2891 112.75 21.9609 110.984 21.9609C109.109 21.9609 107.922 21.2109 107.75 19.6328H103.703C103.969 23.1328 106.812 25.0547 111 25.0547C115.016 25.0547 118 23.1016 118 19.8359C118 17.3828 116.312 16.0078 113.219 15.3516L110.281 14.7422C108.844 14.4297 108.109 13.8359 108.109 12.9297C108.109 11.8516 109.234 11.1328 110.828 11.1328C112.547 11.1328 113.75 12.0391 113.781 13.4766H117.609Z" fill="black"/>
<path d="M120.203 24.7891H124.281V8.28906H120.203V24.7891ZM122.234 5.75781C123.547 5.75781 124.609 4.72656 124.609 3.46094C124.609 2.19531 123.547 1.16406 122.234 1.16406C120.922 1.16406 119.859 2.19531 119.859 3.46094C119.859 4.72656 120.922 5.75781 122.234 5.75781Z" fill="black"/>
<path d="M134.453 25.0391C138.953 25.0391 141.531 22.1797 141.688 18.7266H137.766C137.641 20.5234 136.234 21.7266 134.469 21.7266C132.188 21.7266 130.656 19.7266 130.656 16.5547C130.656 13.3516 132.141 11.3203 134.453 11.3203C136.422 11.3203 137.562 12.6641 137.844 14.3203H141.688C141.578 11.1172 138.953 8.03906 134.422 8.03906C129.641 8.03906 126.531 11.5391 126.531 16.5547C126.531 21.5547 129.672 25.0391 134.453 25.0391Z" fill="black"/>
<path d="M147.106 10.643C149.82 10.643 152.021 8.44275 152.029 5.71164C152.021 2.99766 149.82 0.797363 147.106 0.797363C144.375 0.797363 142.175 2.99766 142.184 5.71164C142.175 8.44275 144.375 10.643 147.106 10.643ZM147.106 9.37595C145.069 9.38451 143.434 7.74071 143.442 5.71164C143.434 3.69114 145.069 2.0559 147.106 2.0559C149.118 2.0559 150.762 3.69114 150.771 5.71164C150.762 7.74071 149.118 9.38451 147.106 9.37595ZM145.343 7.93762H146.456V6.40512H147.295L148.031 7.93762H149.255L148.374 6.18252C148.793 5.93424 149.101 5.48904 149.101 4.87262C149.101 3.91373 148.339 3.39149 147.586 3.40005H145.343V7.93762ZM146.456 5.59178V4.22195H147.269C147.569 4.21339 147.903 4.39318 147.903 4.87262C147.903 5.35206 147.577 5.59178 147.261 5.59178H146.456Z" fill="black"/>
</svg>
